<svg id="uuid-035132ff-3068-4dd6-9217-0cf082fe8636" data-name="Layer 1" xmlns="http://www.w3.org/2000/svg" xmlns:xlink="http://www.w3.org/1999/xlink" viewBox="0 0 681.3 221.2" fill="currentColor"><defs><style>
      .uuid-e6d35d63-0979-4f2e-9f7e-d7e212c6b38d {
        fill: url(#uuid-2ffdc770-cf65-4960-9f69-9b9f38a7d164);
      }

      .uuid-70069b4c-1b1a-492d-ae15-f8e23c42f38f {
        fill: #fff;
      }

      .uuid-61a25fc2-b752-4992-b7ee-e33a0084e125 {
        fill: url(#uuid-5cadb5a5-86ed-4146-86aa-a1d4af8d1578);
      }

      .uuid-686b1929-1d31-41b7-b89e-8f4f2b50cce2 {
        fill: url(#uuid-aff893e1-6b82-46c4-9bf1-c550144bca14);
      }

      .uuid-7430dd9f-980e-4b86-8416-876892f8b9cb {
        fill: url(#uuid-9c753d6d-f01a-4103-8802-15981ad21bd1);
      }

      .uuid-000fef90-17e3-497d-bb52-ecb98f81461f {
        fill: url(#uuid-5594469d-50b0-4716-9291-4a88f9ca5ed6);
      }

      .uuid-33d58c8c-5d76-47d3-a66b-f377993ee619 {
        fill: url(#uuid-d961d81b-08aa-43cc-8073-ec7f7a200f0e);
      }
    </style><radialGradient id="uuid-d961d81b-08aa-43cc-8073-ec7f7a200f0e" cx="321.2" cy="226.9" fx="321.2" fy="226.9" r="457.8" gradientTransform="translate(0 224.6) scale(1 -1)" gradientUnits="userSpaceOnUse"><stop offset="0" stop-color="#97dffb"></stop><stop offset="0" stop-color="#89ccfb"></stop><stop offset="0.2" stop-color="#6499fc"></stop><stop offset="0.4" stop-color="#2a49fd"></stop><stop offset="0.5" stop-color="#0212fe"></stop><stop offset="1" stop-color="#9713a5"></stop></radialGradient><radialGradient id="uuid-aff893e1-6b82-46c4-9bf1-c550144bca14" cx="319.5" cy="226.1" fx="319.5" fy="226.1" r="335.4" gradientTransform="translate(0 224.6) scale(1 -1)" gradientUnits="userSpaceOnUse"><stop offset="0" stop-color="#97dffb"></stop><stop offset="0" stop-color="#89ccfb"></stop><stop offset="0.2" stop-color="#6499fc"></stop><stop offset="0.4" stop-color="#2a49fd"></stop><stop offset="0.5" stop-color="#0212fe"></stop><stop offset="1" stop-color="#9713a5"></stop></radialGradient><radialGradient id="uuid-2ffdc770-cf65-4960-9f69-9b9f38a7d164" cx="319.5" cy="226.1" fx="319.5" fy="226.1" r="335.4" gradientTransform="translate(0 224.6) scale(1 -1)" gradientUnits="userSpaceOnUse"><stop offset="0" stop-color="#97dffb"></stop><stop offset="0" stop-color="#89ccfb"></stop><stop offset="0.2" stop-color="#6499fc"></stop><stop offset="0.4" stop-color="#2a49fd"></stop><stop offset="0.5" stop-color="#0212fe"></stop><stop offset="1" stop-color="#9713a5"></stop></radialGradient><radialGradient id="uuid-5594469d-50b0-4716-9291-4a88f9ca5ed6" cx="321.2" cy="226.9" fx="321.2" fy="226.9" r="457.8" gradientTransform="translate(0 224.6) scale(1 -1)" gradientUnits="userSpaceOnUse"><stop offset="0" stop-color="#97dffb"></stop><stop offset="0" stop-color="#89ccfb"></stop><stop offset="0.2" stop-color="#6499fc"></stop><stop offset="0.4" stop-color="#2a49fd"></stop><stop offset="0.5" stop-color="#0212fe"></stop><stop offset="1" stop-color="#9713a5"></stop></radialGradient><radialGradient id="uuid-9c753d6d-f01a-4103-8802-15981ad21bd1" cx="321" cy="184.8" fx="321" fy="184.8" r="181.6" gradientTransform="translate(0 224.6) scale(1 -1)" gradientUnits="userSpaceOnUse"><stop offset="0" stop-color="#97dffb"></stop><stop offset="0" stop-color="#92d8fb"></stop><stop offset="0.1" stop-color="#84c5fb"></stop><stop offset="0.2" stop-color="#6ea6fc"></stop><stop offset="0.3" stop-color="#4f7bfc"></stop><stop offset="0.5" stop-color="#2745fd"></stop><stop offset="0.6" stop-color="#0212fe"></stop><stop offset="0.6" stop-color="#0912fa"></stop><stop offset="0.7" stop-color="#1d12ee"></stop><stop offset="0.8" stop-color="#3e12da"></stop><stop offset="0.9" stop-color="#6b13bf"></stop><stop offset="1" stop-color="#9713a5"></stop></radialGradient><radialGradient id="uuid-5cadb5a5-86ed-4146-86aa-a1d4af8d1578" cx="321" cy="184.8" fx="321" fy="184.8" r="181.3" gradientTransform="translate(0 224.6) scale(1 -1)" gradientUnits="userSpaceOnUse"><stop offset="0" stop-color="#97dffb"></stop><stop offset="0" stop-color="#92d8fb"></stop><stop offset="0.1" stop-color="#84c5fb"></stop><stop offset="0.2" stop-color="#6ea6fc"></stop><stop offset="0.3" stop-color="#4f7bfc"></stop><stop offset="0.5" stop-color="#2745fd"></stop><stop offset="0.6" stop-color="#0212fe"></stop><stop offset="0.6" stop-color="#0912fa"></stop><stop offset="0.7" stop-color="#1d12ee"></stop><stop offset="0.8" stop-color="#3e12da"></stop><stop offset="0.9" stop-color="#6b13bf"></stop><stop offset="1" stop-color="#9713a5"></stop></radialGradient></defs><g><path d="M3.7,0H150c2.1,0,3.7,1.7,3.7,3.7V36c0,2.1-1.7,3.7-3.7,3.7H46.3v47.2h95.7c2.1,0,3.7,1.7,3.7,3.7v32.3c0,2.1-1.7,3.7-3.7,3.7H46.3v86.8c0,2.1-1.7,3.7-3.7,3.7H3.7c-2.1,0-3.7-1.7-3.7-3.7V3.8C0,1.7,1.7,0,3.7,0Z" style="fill: url(&quot;#uuid-d961d81b-08aa-43cc-8073-ec7f7a200f0e&quot;);"></path><path d="M181.4,0h33.8c2.1,0,3.8,1.7,3.8,3.8V213.5c0,2.1-1.7,3.8-3.8,3.8h-33.8c-2.1,0-3.8-1.7-3.8-3.8V3.8c0-2.1,1.7-3.8,3.8-3.8Z" style="fill: url(&quot;#uuid-aff893e1-6b82-46c4-9bf1-c550144bca14&quot;);"></path><path d="M436.6,178.2V96.1h-22.3c-2.1,0-3.8-1.7-3.8-3.8v-28.5c0-2.1,1.7-3.8,3.8-3.8h22.3V20.8c0-2.1,1.7-3.8,3.8-3.8h34.1c2.1,0,3.8,1.7,3.8,3.8V60h28.1c2.1,0,3.8,1.7,3.8,3.8v28.5c0,2.1-1.7,3.8-3.8,3.8h-28.1v71c0,9.8,5.2,17.3,14.3,17.3s7.7-.9,10.6-2.2c2.1-.9,4.5,.3,5.1,2.5l6.7,24c.4,1.5,0,3.1-1.4,4.1-6.5,4.8-17,8.4-32.5,8.4-28.8,0-44.5-15-44.5-43Z" style="fill: url(&quot;#uuid-2ffdc770-cf65-4960-9f69-9b9f38a7d164&quot;);"></path><path d="M602.5,56.1c46.9,0,78.8,35.2,78.8,86.6h0c0,5-4.1,9.1-9.1,9.1h-107.8c2.6,19.9,18.6,36.5,45.3,36.5s28.6-4.8,38.9-12.9c1.8-1.4,4.3-1.1,5.6,.8l13.9,20.4c1.1,1.6,.8,3.9-.7,5.1-15.7,12.8-39.1,19.5-62.2,19.5-47.9,0-84-32.2-84-82.7,0-45.6,33.4-82.4,81.3-82.4Zm-38.7,67.7h77.5c-1-15-11.4-34.9-38.8-34.9-25.7,0-36.8,19.3-38.7,34.9Z" style="fill: url(&quot;#uuid-5594469d-50b0-4716-9291-4a88f9ca5ed6&quot;);"></path></g><g><path d="M250.3,182.4c-.5-.9-.1-2,.9-2.3,10.7-3.5,19.9-10.7,26.1-20.7l1.5-2.4,1.5,2.4c9,14.5,24.4,23.1,41.3,23.1s32.3-8.6,41.3-23.1l1.5-2.4,1.5,2.4c6.4,10.2,16,17.5,27,20.9,1,.3,1.4,1.4,.9,2.3,0,0,2.3-4.2,3.6-7.1,1.4-2.9,3.1-7.6,3.1-7.6-.4,1.2-1.6,1.8-2.8,1.5-14.8-3.9-26-16.8-27.4-32.5-.1-.8-.8-1.4-1.6-1.4h-8.8c-.8,0-1.5,.6-1.6,1.5-1.6,18.9-17.5,33.7-36.8,33.7s-35.2-14.9-36.8-33.7c-.1-.8-.7-1.5-1.6-1.5h-8.8c-.8,0-1.5,.6-1.6,1.4-1.3,15.3-12,28-26.2,32.2-1.2,.4-2.5-.3-2.9-1.5,0,0,1,3,3.1,7.7,2.1,4.9,3.6,7.1,3.6,7.1Z" style="fill: rgb(255, 255, 255);"></path><g><path d="M274.3,135.6h8.8c.8,0,1.5,.6,1.6,1.5,1.6,18.9,17.5,33.7,36.8,33.7s35.2-14.9,36.8-33.7c.1-.8,.7-1.5,1.6-1.5h8.8c.8,0,1.5,.6,1.6,1.4,1.3,15.7,12.5,28.6,27.4,32.5,1.2,.3,2.4-.4,2.8-1.5,3.2-9.2,4.9-19.2,4.9-29.6,0-44.6-31.3-82.4-83.4-82.4s-83.1,37.8-83.1,82.4,1.6,20.2,4.8,29.3c.4,1.2,1.7,1.8,2.9,1.5,14.3-4.3,24.9-16.9,26.2-32.2,0-.8,.7-1.4,1.5-1.4Z" style="fill: url(&quot;#uuid-9c753d6d-f01a-4103-8802-15981ad21bd1&quot;);"></path><path d="M365.7,159.4l-1.5-2.4-1.5,2.4c-9,14.5-24.4,23.1-41.3,23.1s-32.3-8.6-41.3-23.1l-1.5-2.4-1.5,2.4c-6.2,9.9-15.4,17.1-26.1,20.7-1,.3-1.4,1.4-.9,2.3,13.5,23.1,38.3,38.8,71.6,38.8s58.2-15.5,71.8-38.5c.5-.9,.1-2-.9-2.3-10.9-3.4-20.5-10.7-26.9-21Z" style="fill: url(&quot;#uuid-5cadb5a5-86ed-4146-86aa-a1d4af8d1578&quot;);"></path></g></g></svg>