<svg xmlns="http://www.w3.org/2000/svg" width="180.621" height="35.321" viewBox="0 0 180.621 35.321"> <g id="Logo_color" data-name="Logo color" transform="translate(377.213 -199.385)"> <path id="svg-logo-mark" data-name=" Path " d="M-347.9,211.4l-9.621-5.557-9.621-5.557a6.715,6.715,0,0,0-9.173,2.458,6.714,6.714,0,0,0-.9,3.354V228.3a6.744,6.744,0,0,0,3.358,5.812,5.9,5.9,0,0,0,1.355.589V206.1a1.979,1.979,0,0,1,1-1.728,2.024,2.024,0,0,1,1-.275,1.837,1.837,0,0,1,1,.275l9.621,5.557,9.621,5.557a1.991,1.991,0,0,1,.739,2.717,1.99,1.99,0,0,1-.739.739l-9.621,5.557-3.613,2.081v-5.792c.2-.157,4.457-2.611,4.457-2.611a1.088,1.088,0,0,0,.55-.962,1.129,1.129,0,0,0-.55-.962l-6.735-3.907a1.137,1.137,0,0,0-1.119,0,1.088,1.088,0,0,0-.55.962v19.929a4.418,4.418,0,0,1-.157,1.139c.157-.079.314-.157.471-.255l9.621-5.557,9.621-5.557a6.676,6.676,0,0,0,2.485-9.108A6.677,6.677,0,0,0-347.9,211.4Z" fill="#8ac640"></path> <path id="svg-logo-text" data-name="Path 721" d="M-176.264,249.292a.072.072,0,0,0,.059.02h.884s.55.02.825.039a11.75,11.75,0,0,1,1.453.2,5.405,5.405,0,0,1,1.355.53,3.718,3.718,0,0,1,1.63,1.846,6.926,6.926,0,0,1,.51,2.435,5.889,5.889,0,0,1-.393,2.258,3.878,3.878,0,0,1-1.394,1.787,4.376,4.376,0,0,1-1.787.766,16.22,16.22,0,0,1-1.963.236h-1.021l-3.947-.02V264.8h-3.259V249.292Zm-.039,2.769h-3.79v4.575h3.986a4.317,4.317,0,0,0,2.062-.471,1.868,1.868,0,0,0,.864-1.806c.02-1-.275-1.63-.923-1.885A5.932,5.932,0,0,0-176.3,252.06Zm12.39,12.527a4.317,4.317,0,0,1-2.376-1.374,4.235,4.235,0,0,1-1.158-2.179,12.944,12.944,0,0,1-.236-2.494v-9.248h3.259v8.522a8.2,8.2,0,0,0,.471,3.3c.334.746,1.355,1.139,3.063,1.139l3.848-.02V264.8h-4.123A17.513,17.513,0,0,1-163.914,264.587Zm18.417-15.3,6.617,15.512h-3.632l-1.433-3.691h-6.735l-1.374,3.691h-3.436l6.558-15.512Zm-4.123,9.052h4.634l-2.356-5.969Zm13.018-9.052,3.829,5.93,3.888-5.93h3.79l-5.989,8.659V264.8h-3.259v-6.853l-5.91-8.659Zm15.924,3.652a4.18,4.18,0,0,0-1,2.67l9.032-.02v2.71H-121.7a6.756,6.756,0,0,0,.177,1.571,3.056,3.056,0,0,0,.746,1.374,2.1,2.1,0,0,0,1.178.727,6.584,6.584,0,0,0,1.394.137h.2l5.36-.02v2.71h-5.517a13.194,13.194,0,0,1-2.533-.236,5.3,5.3,0,0,1-2.3-1.1,5.71,5.71,0,0,1-1.826-2.592,10.677,10.677,0,0,1-.569-3.122c-.02-.236-.02-.452-.02-.668s.02-.432.039-.648a8.024,8.024,0,0,1,2-5.4,7.254,7.254,0,0,1,5.282-1.728l5.419-.02V252h-5.36A3.539,3.539,0,0,0-120.678,252.944Zm18.928-3.652a3.733,3.733,0,0,0,.471.02,3.821,3.821,0,0,1,.471.02,7.545,7.545,0,0,1,1.747.275,3.34,3.34,0,0,1,1.492.884,3.533,3.533,0,0,1,.884,1.316,5.387,5.387,0,0,1,.353,1.551,1.494,1.494,0,0,0,.02.295c0,.1.02.2.02.295a4.889,4.889,0,0,1-.746,2.808,3.754,3.754,0,0,1-2.4,1.571l3.868,6.46h-3.672l-3.416-6.087H-106.5v6.087h-3.259V249.272Zm-.785,2.769h-4.006v3.907h4.006a.149.149,0,0,0,.079.02h.079a5.271,5.271,0,0,0,1.885-.314q.854-.324.825-1.649c0-.923-.295-1.473-.9-1.669a6.34,6.34,0,0,0-2-.275v-.02Zm9.464-2.729H-90.6v8.993a12.454,12.454,0,0,0,.157,2.219,2.605,2.605,0,0,0,.569,1.217,4.569,4.569,0,0,0,3.358,1.06H-83.2v1.963H-87a10.134,10.134,0,0,1-2.867-.334,4.775,4.775,0,0,1-1.885-1.178,4.065,4.065,0,0,1-1.021-1.787,11.055,11.055,0,0,1-.295-2.867Zm13.823,9.248-6.185-9.248h2.867l4.634,7.3,4.5-7.3h2.867l-6.2,9.248V264.8h-2.474v-6.224Zm12.822-6.126V264.8h-2.4V249.331h2.945l7.893,12.37v-12.37h2.4V264.8h-2.867l-7.972-12.35Zm25.643,10.387V264.8h-4.811a13.13,13.13,0,0,1-3.279-.334,5.411,5.411,0,0,1-3.554-3.2,9.725,9.725,0,0,1-.825-4.084,9.844,9.844,0,0,1,1.119-4.771,5.347,5.347,0,0,1,2.356-2.4,9.719,9.719,0,0,1,4.064-.687h4.948v1.964h-4.811a9.012,9.012,0,0,0-2.376.236,2.858,2.858,0,0,0-1.355.9,5.3,5.3,0,0,0-.962,2,10.425,10.425,0,0,0-.353,2.788,6.45,6.45,0,0,0,1.335,4.379,3.207,3.207,0,0,0,1.453.962,8.636,8.636,0,0,0,2.454.255l4.595.02Z" transform="translate(-155.828 -40.092)" fill="#fff"></path> </g> </svg>